<svg width="284" height="89" fill="none" xmlns="http://www.w3.org/2000/svg">
    <path
        d="M283.575 77.12v5.894h-5.895V77.12h5.895ZM283.575 71.213v5.907h-5.895v-5.907h5.895ZM283.575 65.318v5.895h-5.895v-5.895h5.895ZM277.68 83.014v5.894h-5.894v-5.894h5.894Z"
        fill="#CEE0E0" />
    <path d="M277.68 77.12v5.894h-5.894V77.12h5.894ZM277.68 71.213v5.907h-5.894v-5.907h5.894Z" fill="#CEE0E0" />
    <path d="M277.68 65.318v5.895h-5.894v-5.895h5.894Z" fill="#F2F2F2" />
    <path d="M277.68 59.423v5.895h-5.894v-5.895h5.894Z" fill="#fff" />
    <path d="M271.786 83.014v5.894h-5.895v-5.894h5.895Z" fill="#CEE0E0" />
    <path d="M271.786 77.12v5.894h-5.895V77.12h5.895Z" fill="#CEE0E0" />
    <path d="M271.786 71.213v5.907h-5.895v-5.907h5.895ZM271.786 65.318v5.895h-5.895v-5.895h5.895Z" fill="#F2F2F2" />
    <path
        d="M271.786 59.423v5.895h-5.895v-5.895h5.895ZM271.786 53.529v5.894h-5.895V53.53h5.895ZM271.786 47.634v5.895h-5.895v-5.895h5.895ZM271.786 41.727v5.907h-5.895v-5.907h5.895Z"
        fill="#fff" />
    <path d="M265.891 83.014v5.894h-5.895v-5.894h5.895Z" fill="#CEE0E0" />
    <path d="M265.891 77.12v5.894h-5.895V77.12h5.895Z" fill="#CEE0E0" />
    <path
        d="M265.891 71.213v5.907h-5.895v-5.907h5.895ZM265.891 65.318v5.895h-5.895v-5.895h5.895ZM265.891 59.423v5.895h-5.895v-5.895h5.895ZM265.891 53.529v5.894h-5.895V53.53h5.895ZM265.891 47.634v5.895h-5.895v-5.895h5.895Z"
        fill="#F2F2F2" />
    <path d="M265.891 41.727v5.907h-5.895v-5.907h5.895Z" fill="#fff" />
    <path d="M265.891 35.833v5.895h-5.895v-5.895h5.895Z" fill="#fff" />
    <path d="M259.996 77.12v5.894h-5.906V77.12h5.906ZM259.996 71.213v5.907h-5.906v-5.907h5.906Z" fill="#CEE0E0" />
    <path
        d="M259.996 65.318v5.895h-5.906v-5.895h5.906ZM259.996 59.423v5.895h-5.906v-5.895h5.906ZM259.996 53.529v5.894h-5.906V53.53h5.906ZM259.996 47.634v5.895h-5.906v-5.895h5.906ZM259.996 41.727v5.907h-5.906v-5.907h5.906Z"
        fill="#F2F2F2" />
    <path d="M259.996 35.833v5.895h-5.906v-5.895h5.906Z" fill="#fff" />
    <path d="M254.09 83.014v5.894h-5.894v-5.894h5.894Z" fill="#CEE0E0" />
    <path d="M254.09 77.12v5.894h-5.894V77.12h5.894ZM254.09 71.213v5.907h-5.894v-5.907h5.894Z" fill="#CEE0E0" />
    <path d="M254.09 65.318v5.895h-5.894v-5.895h5.894ZM254.09 59.423v5.895h-5.894v-5.895h5.894Z" fill="#F2F2F2" />
    <path d="M254.09 53.529v5.894h-5.894V53.53h5.894ZM254.09 47.634v5.895h-5.894v-5.895h5.894Z" fill="#CEE0E0" />
    <path d="M254.09 41.727v5.907h-5.894v-5.907h5.894Z" fill="#F2F2F2" />
    <path d="M254.09 35.833v5.895h-5.894v-5.895h5.894ZM254.09 29.938v5.895h-5.894v-5.895h5.894Z" fill="#fff" />
    <path d="M248.196 83.014v5.894h-5.894v-5.894h5.894Z" fill="#CEE0E0" />
    <path d="M248.196 77.12v5.894h-5.894V77.12h5.894ZM248.196 71.213v5.907h-5.894v-5.907h5.894Z" fill="#CEE0E0" />
    <path d="M248.196 65.318v5.895h-5.894v-5.895h5.894ZM248.196 59.423v5.895h-5.894v-5.895h5.894Z" fill="#F2F2F2" />
    <path d="M248.196 53.529v5.894h-5.894V53.53h5.894Z" fill="#CEE0E0" />
    <path d="M248.196 47.634v5.895h-5.894v-5.895h5.894ZM248.196 41.727v5.907h-5.894v-5.907h5.894Z" fill="#F2F2F2" />
    <path d="M248.196 35.833v5.895h-5.894v-5.895h5.894Z" fill="#F2F2F2" />
    <path d="M248.196 29.938v5.895h-5.894v-5.895h5.894Z" fill="#fff" />
    <path d="M242.302 83.014v5.894h-5.895v-5.894h5.895Z" fill="#CEE0E0" />
    <path
        d="M242.302 77.12v5.894h-5.895V77.12h5.895ZM242.302 71.213v5.907h-5.895v-5.907h5.895ZM242.302 65.318v5.895h-5.895v-5.895h5.895ZM242.302 59.423v5.895h-5.895v-5.895h5.895ZM242.302 53.529v5.894h-5.895V53.53h5.895ZM242.302 47.634v5.895h-5.895v-5.895h5.895Z"
        fill="#CEE0E0" />
    <path d="M242.302 41.727v5.907h-5.895v-5.907h5.895Z" fill="#F2F2F2" />
    <path d="M242.302 35.833v5.895h-5.895v-5.895h5.895Z" fill="#F2F2F2" />
    <path d="M242.302 29.938v5.895h-5.895v-5.895h5.895Z" fill="#fff" />
    <path d="M236.407 83.014v5.894h-5.895v-5.894h5.895Z" fill="#CEE0E0" />
    <path
        d="M236.407 77.12v5.894h-5.895V77.12h5.895ZM236.407 71.213v5.907h-5.895v-5.907h5.895ZM236.407 65.318v5.895h-5.895v-5.895h5.895ZM236.407 59.423v5.895h-5.895v-5.895h5.895Z"
        fill="#CEE0E0" />
    <path d="M236.407 53.529v5.894h-5.895V53.53h5.895Z" fill="#F2F2F2" />
    <path d="M236.407 47.634v5.895h-5.895v-5.895h5.895Z" fill="#CEE0E0" />
    <path d="M236.407 41.727v5.907h-5.895v-5.907h5.895Z" fill="#F2F2F2" />
    <path d="M236.407 35.833v5.895h-5.895v-5.895h5.895Z" fill="#F2F2F2" />
    <path d="M236.407 29.938v5.895h-5.895v-5.895h5.895Z" fill="#fff" />
    <path d="M236.407 24.044v5.894h-5.895v-5.894h5.895Z" fill="#fff" />
    <path d="M230.512 83.014v5.894h-5.907v-5.894h5.907Z" fill="#CEE0E0" />
    <path
        d="M230.512 77.12v5.894h-5.907V77.12h5.907ZM230.512 71.213v5.907h-5.907v-5.907h5.907ZM230.512 65.318v5.895h-5.907v-5.895h5.907Z"
        fill="#CEE0E0" />
    <path
        d="M230.512 59.423v5.895h-5.907v-5.895h5.907ZM230.512 53.529v5.894h-5.907V53.53h5.907ZM230.512 47.634v5.895h-5.907v-5.895h5.907ZM230.512 41.727v5.907h-5.907v-5.907h5.907Z"
        fill="#F2F2F2" />
    <path d="M230.512 35.833v5.895h-5.907v-5.895h5.907ZM230.512 29.938v5.895h-5.907v-5.895h5.907Z" fill="#F2F2F2" />
    <path d="M230.512 18.149v5.895h-5.907v-5.895h5.907ZM230.512 12.242v5.907h-5.907v-5.907h5.907Z" fill="#fff" />
    <path d="M224.606 77.12v5.894h-5.895V77.12h5.895ZM224.606 71.213v5.907h-5.895v-5.907h5.895Z" fill="#CEE0E0" />
    <path
        d="M224.606 65.318v5.895h-5.895v-5.895h5.895ZM224.606 59.423v5.895h-5.895v-5.895h5.895ZM224.606 53.529v5.894h-5.895V53.53h5.895ZM224.606 47.634v5.895h-5.895v-5.895h5.895ZM224.606 41.727v5.907h-5.895v-5.907h5.895Z"
        fill="#F2F2F2" />
    <path d="M224.606 35.833v5.895h-5.895v-5.895h5.895ZM224.606 29.938v5.895h-5.895v-5.895h5.895Z" fill="#F2F2F2" />
    <path d="M224.606 24.044v5.894h-5.895v-5.894h5.895ZM224.606 18.149v5.895h-5.895v-5.895h5.895Z" fill="#F2F2F2" />
    <path d="M224.606 12.242v5.907h-5.895v-5.907h5.895ZM224.606 6.349v5.893h-5.895V6.35h5.895Z" fill="#fff" />
    <path d="M218.711 77.12v5.894h-5.895V77.12h5.895ZM218.711 71.213v5.907h-5.895v-5.907h5.895Z" fill="#CEE0E0" />
    <path d="M218.711 65.318v5.895h-5.895v-5.895h5.895ZM218.711 59.423v5.895h-5.895v-5.895h5.895Z" fill="#F2F2F2" />
    <path
        d="M218.711 53.529v5.894h-5.895V53.53h5.895ZM218.711 47.634v5.895h-5.895v-5.895h5.895ZM218.711 41.727v5.907h-5.895v-5.907h5.895Z"
        fill="#fff" />
    <path d="M218.711 35.833v5.895h-5.895v-5.895h5.895ZM218.711 29.938v5.895h-5.895v-5.895h5.895Z" fill="#F2F2F2" />
    <path
        d="M218.711 24.044v5.894h-5.895v-5.894h5.895ZM218.711 18.149v5.895h-5.895v-5.895h5.895ZM218.711 12.242v5.907h-5.895v-5.907h5.895Z"
        fill="#F2F2F2" />
    <path d="M218.711 6.349v5.893h-5.895V6.35h5.895Z" fill="#fff" />
    <path d="M212.816 77.12v5.894h-5.894V77.12h5.894Z" fill="#CEE0E0" />
    <path
        d="M212.816 71.213v5.907h-5.894v-5.907h5.894ZM212.816 65.318v5.895h-5.894v-5.895h5.894ZM212.816 59.423v5.895h-5.894v-5.895h5.894Z"
        fill="#F2F2F2" />
    <path
        d="M212.816 53.529v5.894h-5.894V53.53h5.894ZM212.816 47.634v5.895h-5.894v-5.895h5.894ZM212.816 41.727v5.907h-5.894v-5.907h5.894Z"
        fill="#fff" />
    <path d="M212.816 35.833v5.895h-5.894v-5.895h5.894ZM212.816 29.938v5.895h-5.894v-5.895h5.894Z" fill="#F2F2F2" />
    <path
        d="M212.816 24.044v5.894h-5.894v-5.894h5.894ZM212.816 18.149v5.895h-5.894v-5.895h5.894ZM212.816 12.242v5.907h-5.894v-5.907h5.894Z"
        fill="#F2F2F2" />
    <path d="M212.816 6.349v5.893h-5.894V6.35h5.894Z" fill="#fff" />
    <path d="M212.816.454V6.35h-5.894V.454h5.894Z" fill="#fff" />
    <path d="M206.922 77.12v5.894h-5.895V77.12h5.895Z" fill="#CEE0E0" />
    <path
        d="M206.922 71.213v5.907h-5.895v-5.907h5.895ZM206.922 65.318v5.895h-5.895v-5.895h5.895ZM206.922 59.423v5.895h-5.895v-5.895h5.895Z"
        fill="#F2F2F2" />
    <path d="M206.922 53.529v5.894h-5.895V53.53h5.895ZM206.922 47.634v5.895h-5.895v-5.895h5.895Z" fill="#fff" />
    <path d="M206.922 41.727v5.907h-5.895v-5.907h5.895Z" fill="#F2F2F2" />
    <path d="M206.922 35.833v5.895h-5.895v-5.895h5.895ZM206.922 29.938v5.895h-5.895v-5.895h5.895Z" fill="#F2F2F2" />
    <path d="M206.922 24.044v5.894h-5.895v-5.894h5.895ZM206.922 18.149v5.895h-5.895v-5.895h5.895Z" fill="#fff" />
    <path d="M206.922 12.242v5.907h-5.895v-5.907h5.895ZM206.922 6.349v5.893h-5.895V6.35h5.895Z" fill="#F2F2F2" />
    <path d="M206.922.454V6.35h-5.895V.454h5.895Z" fill="#fff" />
    <path d="M201.027 77.12v5.894h-5.907V77.12h5.907ZM201.027 71.213v5.907h-5.907v-5.907h5.907Z" fill="#CEE0E0" />
    <path
        d="M201.027 65.318v5.895h-5.907v-5.895h5.907ZM201.027 59.423v5.895h-5.907v-5.895h5.907ZM201.027 53.529v5.894h-5.907V53.53h5.907ZM201.027 47.634v5.895h-5.907v-5.895h5.907ZM201.027 41.727v5.907h-5.907v-5.907h5.907Z"
        fill="#F2F2F2" />
    <path d="M201.027 35.833v5.895h-5.907v-5.895h5.907Z" fill="#CEE0E0" />
    <path d="M201.027 29.938v5.895h-5.907v-5.895h5.907Z" fill="#F2F2F2" />
    <path d="M201.027 24.044v5.894h-5.907v-5.894h5.907ZM201.027 18.149v5.895h-5.907v-5.895h5.907Z" fill="#fff" />
    <path d="M201.027 12.242v5.907h-5.907v-5.907h5.907ZM201.027 6.349v5.893h-5.907V6.35h5.907Z" fill="#F2F2F2" />
    <path d="M201.027.454V6.35h-5.907V.454h5.907Z" fill="#fff" />
    <path d="M195.12 77.12v5.894h-5.894V77.12h5.894ZM195.12 71.213v5.907h-5.894v-5.907h5.894Z" fill="#CEE0E0" />
    <path
        d="M195.12 65.318v5.895h-5.894v-5.895h5.894ZM195.12 59.423v5.895h-5.894v-5.895h5.894ZM195.12 53.529v5.894h-5.894V53.53h5.894ZM195.12 47.634v5.895h-5.894v-5.895h5.894Z"
        fill="#F2F2F2" />
    <path d="M195.12 41.727v5.907h-5.894v-5.907h5.894Z" fill="#CEE0E0" />
    <path d="M195.12 35.833v5.895h-5.894v-5.895h5.894Z" fill="#CEE0E0" />
    <path d="M195.12 29.938v5.895h-5.894v-5.895h5.894Z" fill="#F2F2F2" />
    <path
        d="M195.12 24.044v5.894h-5.894v-5.894h5.894ZM195.12 18.149v5.895h-5.894v-5.895h5.894ZM195.12 12.242v5.907h-5.894v-5.907h5.894Z"
        fill="#F2F2F2" />
    <path d="M195.12 6.349v5.893h-5.894V6.35h5.894Z" fill="#fff" />
    <path d="M195.12.454V6.35h-5.894V.454h5.894Z" fill="#fff" />
    <path d="M189.225 77.12v5.894h-5.894V77.12h5.894ZM189.225 71.213v5.907h-5.894v-5.907h5.894Z" fill="#CEE0E0" />
    <path
        d="M189.225 65.318v5.895h-5.894v-5.895h5.894ZM189.225 59.423v5.895h-5.894v-5.895h5.894ZM189.225 53.529v5.894h-5.894V53.53h5.894Z"
        fill="#F2F2F2" />
    <path d="M189.225 47.634v5.895h-5.894v-5.895h5.894ZM189.225 41.727v5.907h-5.894v-5.907h5.894Z" fill="#CEE0E0" />
    <path d="M189.225 35.833v5.895h-5.894v-5.895h5.894ZM189.225 29.938v5.895h-5.894v-5.895h5.894Z" fill="#F2F2F2" />
    <path d="M189.225 24.044v5.894h-5.894v-5.894h5.894ZM189.225 18.149v5.895h-5.894v-5.895h5.894Z" fill="#F2F2F2" />
    <path d="M189.225 12.242v5.907h-5.894v-5.907h5.894ZM189.225 6.349v5.893h-5.894V6.35h5.894Z" fill="#fff" />
    <path
        d="M183.331 77.12v5.894h-5.893V77.12h5.893ZM183.331 71.213v5.907h-5.893v-5.907h5.893ZM183.331 65.318v5.895h-5.893v-5.895h5.893ZM183.331 59.423v5.895h-5.893v-5.895h5.893ZM183.331 53.529v5.894h-5.893V53.53h5.893ZM183.331 47.634v5.895h-5.893v-5.895h5.893ZM183.331 41.727v5.907h-5.893v-5.907h5.893Z"
        fill="#CEE0E0" />
    <path d="M183.331 35.833v5.895h-5.893v-5.895h5.893ZM183.331 29.938v5.895h-5.893v-5.895h5.893Z" fill="#F2F2F2" />
    <path d="M183.331 24.044v5.894h-5.893v-5.894h5.893ZM183.331 18.149v5.895h-5.893v-5.895h5.893Z" fill="#F2F2F2" />
    <path d="M183.331 12.242v5.907h-5.893v-5.907h5.893Z" fill="#fff" />
    <path
        d="M177.438 77.12v5.894h-5.895V77.12h5.895ZM177.438 71.213v5.907h-5.895v-5.907h5.895ZM177.438 65.318v5.895h-5.895v-5.895h5.895ZM177.438 59.423v5.895h-5.895v-5.895h5.895ZM177.438 53.529v5.894h-5.895V53.53h5.895ZM177.438 47.634v5.895h-5.895v-5.895h5.895ZM177.438 41.727v5.907h-5.895v-5.907h5.895Z"
        fill="#CEE0E0" />
    <path d="M177.438 35.833v5.895h-5.895v-5.895h5.895ZM177.438 29.938v5.895h-5.895v-5.895h5.895Z" fill="#F2F2F2" />
    <path d="M177.438 24.044v5.894h-5.895v-5.894h5.895Z" fill="#F2F2F2" />
    <path d="M177.438 18.149v5.895h-5.895v-5.895h5.895ZM177.438 12.242v5.907h-5.895v-5.907h5.895Z" fill="#fff" />
    <path
        d="M171.543 77.12v5.894h-5.907V77.12h5.907ZM171.543 71.213v5.907h-5.907v-5.907h5.907ZM171.543 65.318v5.895h-5.907v-5.895h5.907ZM171.543 59.423v5.895h-5.907v-5.895h5.907Z"
        fill="#CEE0E0" />
    <path d="M171.543 53.529v5.894h-5.907V53.53h5.907ZM171.543 47.634v5.895h-5.907v-5.895h5.907Z" fill="#F2F2F2" />
    <path d="M171.543 41.727v5.907h-5.907v-5.907h5.907Z" fill="#CEE0E0" />
    <path d="M171.543 35.833v5.895h-5.907v-5.895h5.907Z" fill="#CEE0E0" />
    <path d="M171.543 29.938v5.895h-5.907v-5.895h5.907Z" fill="#F2F2F2" />
    <path d="M171.543 24.044v5.894h-5.907v-5.894h5.907Z" fill="#fff" />
    <path d="M165.636 83.014v5.894h-5.894v-5.894h5.894Z" fill="#CEE0E0" />
    <path d="M165.636 77.12v5.894h-5.894V77.12h5.894ZM165.636 71.213v5.907h-5.894v-5.907h5.894Z" fill="#CEE0E0" />
    <path
        d="M165.636 65.318v5.895h-5.894v-5.895h5.894ZM165.636 59.423v5.895h-5.894v-5.895h5.894ZM165.636 53.529v5.894h-5.894V53.53h5.894ZM165.636 47.634v5.895h-5.894v-5.895h5.894ZM165.636 41.727v5.907h-5.894v-5.907h5.894Z"
        fill="#F2F2F2" />
    <path d="M165.636 35.833v5.895h-5.894v-5.895h5.894ZM165.636 29.938v5.895h-5.894v-5.895h5.894Z" fill="#fff" />
    <path d="M159.742 83.014v5.894h-5.895v-5.894h5.895Z" fill="#CEE0E0" />
    <path d="M159.742 77.12v5.894h-5.895V77.12h5.895Z" fill="#CEE0E0" />
    <path
        d="M159.742 71.213v5.907h-5.895v-5.907h5.895ZM159.742 65.318v5.895h-5.895v-5.895h5.895ZM159.742 59.423v5.895h-5.895v-5.895h5.895ZM159.742 53.529v5.894h-5.895V53.53h5.895ZM159.742 47.634v5.895h-5.895v-5.895h5.895Z"
        fill="#F2F2F2" />
    <path d="M159.742 41.727v5.907h-5.895v-5.907h5.895Z" fill="#fff" />
    <path d="M159.742 35.833v5.895h-5.895v-5.895h5.895Z" fill="#fff" />
    <path d="M153.847 83.014v5.894h-5.895v-5.894h5.895Z" fill="#CEE0E0" />
    <path d="M153.847 77.12v5.894h-5.895V77.12h5.895Z" fill="#CEE0E0" />
    <path
        d="M153.847 71.213v5.907h-5.895v-5.907h5.895ZM153.847 65.318v5.895h-5.895v-5.895h5.895ZM153.847 59.423v5.895h-5.895v-5.895h5.895ZM153.847 53.529v5.894h-5.895V53.53h5.895Z"
        fill="#F2F2F2" />
    <path d="M153.847 47.634v5.895h-5.895v-5.895h5.895ZM153.847 41.727v5.907h-5.895v-5.907h5.895Z" fill="#fff" />
    <path d="M147.952 83.014v5.894h-5.894v-5.894h5.894Z" fill="#CEE0E0" />
    <path
        d="M147.952 77.12v5.894h-5.894V77.12h5.894ZM147.952 71.213v5.907h-5.894v-5.907h5.894ZM147.952 65.318v5.895h-5.894v-5.895h5.894Z"
        fill="#F2F2F2" />
    <path
        d="M147.952 59.423v5.895h-5.894v-5.895h5.894ZM147.952 53.529v5.894h-5.894V53.53h5.894ZM147.952 47.634v5.895h-5.894v-5.895h5.894Z"
        fill="#fff" />
    <path d="M142.058 83.014v5.894h-5.907v-5.894h5.907Z" fill="#CEE0E0" />
    <path
        d="M142.058 77.12v5.894h-5.907V77.12h5.907ZM142.058 71.213v5.907h-5.907v-5.907h5.907ZM142.058 65.318v5.895h-5.907v-5.895h5.907Z"
        fill="#F2F2F2" />
    <path d="M142.058 59.423v5.895h-5.907v-5.895h5.907Z" fill="#fff" />
    <path d="M136.151 83.014v5.894h-5.895v-5.894h5.895Z" fill="#CEE0E0" />
    <path
        d="M136.151 77.12v5.894h-5.895V77.12h5.895ZM136.151 71.213v5.907h-5.895v-5.907h5.895ZM136.151 65.318v5.895h-5.895v-5.895h5.895Z"
        fill="#F2F2F2" />
    <path d="M136.151 59.423v5.895h-5.895v-5.895h5.895ZM136.151 53.529v5.894h-5.895V53.53h5.895Z" fill="#fff" />
    <path d="M130.256 83.014v5.894h-5.894v-5.894h5.894Z" fill="#CEE0E0" />
    <path
        d="M130.256 77.12v5.894h-5.894V77.12h5.894ZM130.256 71.213v5.907h-5.894v-5.907h5.894ZM130.256 65.318v5.895h-5.894v-5.895h5.894ZM130.256 59.423v5.895h-5.894v-5.895h5.894Z"
        fill="#F2F2F2" />
    <path d="M130.256 53.529v5.894h-5.894V53.53h5.894Z" fill="#fff" />
    <path d="M124.361 83.014v5.894h-5.894v-5.894h5.894Z" fill="#CEE0E0" />
    <path d="M124.361 77.12v5.894h-5.894V77.12h5.894Z" fill="#CEE0E0" />
    <path
        d="M124.361 71.213v5.907h-5.894v-5.907h5.894ZM124.361 65.318v5.895h-5.894v-5.895h5.894ZM124.361 59.423v5.895h-5.894v-5.895h5.894Z"
        fill="#F2F2F2" />
    <path d="M124.361 53.529v5.894h-5.894V53.53h5.894Z" fill="#fff" />
    <path d="M118.467 83.014v5.894h-5.895v-5.894h5.895Z" fill="#CEE0E0" />
    <path d="M118.467 77.12v5.894h-5.895V77.12h5.895ZM118.467 71.213v5.907h-5.895v-5.907h5.895Z" fill="#CEE0E0" />
    <path
        d="M118.467 65.318v5.895h-5.895v-5.895h5.895ZM118.467 59.423v5.895h-5.895v-5.895h5.895ZM118.467 53.529v5.894h-5.895V53.53h5.895ZM112.572 77.12v5.894h-5.906V77.12h5.906ZM112.572 71.213v5.907h-5.906v-5.907h5.906ZM112.572 65.318v5.895h-5.906v-5.895h5.906ZM112.572 59.423v5.895h-5.906v-5.895h5.906Z"
        fill="#F2F2F2" />
    <path d="M88.982 77.12v5.894h-5.894V77.12h5.894Z" fill="#CEE0E0" />
    <path d="M88.982 71.213v5.907h-5.894v-5.907h5.894Z" fill="#F2F2F2" />
    <path d="M88.982 65.318v5.895h-5.894v-5.895h5.894Z" fill="#CEE0E0" />
    <path d="M88.982 59.423v5.895h-5.894v-5.895h5.894ZM88.982 53.529v5.894h-5.894V53.53h5.894Z" fill="#F2F2F2" />
    <path
        d="M83.088 77.12v5.894h-5.907V77.12h5.907ZM83.088 71.213v5.907h-5.907v-5.907h5.907ZM83.088 65.318v5.895h-5.907v-5.895h5.907Z"
        fill="#CEE0E0" />
    <path
        d="M83.088 59.423v5.895h-5.907v-5.895h5.907ZM83.088 53.529v5.894h-5.907V53.53h5.907ZM83.088 47.634v5.895h-5.907v-5.895h5.907Z"
        fill="#F2F2F2" />
    <path
        d="M77.181 77.12v5.894h-5.894V77.12h5.894ZM77.181 71.213v5.907h-5.894v-5.907h5.894ZM77.181 65.318v5.895h-5.894v-5.895h5.894ZM77.181 59.423v5.895h-5.894v-5.895h5.894Z"
        fill="#CEE0E0" />
    <path d="M77.181 53.529v5.894h-5.894V53.53h5.894ZM77.181 47.634v5.895h-5.894v-5.895h5.894Z" fill="#F2F2F2" />
    <path d="M71.287 83.014v5.894h-5.895v-5.894h5.895Z" fill="#CEE0E0" />
    <path d="M71.287 77.12v5.894h-5.895V77.12h5.895ZM71.287 71.213v5.907h-5.895v-5.907h5.895Z" fill="#CEE0E0" />
    <path d="M71.287 65.318v5.895h-5.895v-5.895h5.895Z" fill="#F2F2F2" />
    <path d="M71.287 59.423v5.895h-5.895v-5.895h5.895ZM71.287 53.529v5.894h-5.895V53.53h5.895Z" fill="#fff" />
    <path d="M71.287 47.634v5.895h-5.895v-5.895h5.895Z" fill="#F2F2F2" />
    <path d="M65.392 83.014v5.894h-5.894v-5.894h5.894Z" fill="#CEE0E0" />
    <path d="M65.392 77.12v5.894h-5.894V77.12h5.894ZM65.392 71.213v5.907h-5.894v-5.907h5.894Z" fill="#CEE0E0" />
    <path d="M65.392 65.318v5.895h-5.894v-5.895h5.894Z" fill="#F2F2F2" />
    <path d="M65.392 59.423v5.895h-5.894v-5.895h5.894ZM65.392 53.529v5.894h-5.894V53.53h5.894Z" fill="#fff" />
    <path d="M65.392 47.634v5.895h-5.894v-5.895h5.894Z" fill="#F2F2F2" />
    <path d="M65.392 41.727v5.907h-5.894v-5.907h5.894Z" fill="#fff" />
    <path d="M65.392 35.833v5.895h-5.894v-5.895h5.894Z" fill="#fff" />
    <path d="M59.498 83.014v5.894h-5.895v-5.894h5.895Z" fill="#CEE0E0" />
    <path d="M59.498 77.12v5.894h-5.895V77.12h5.895Z" fill="#CEE0E0" />
    <path
        d="M59.498 71.213v5.907h-5.895v-5.907h5.895ZM59.498 65.318v5.895h-5.895v-5.895h5.895ZM59.498 59.423v5.895h-5.895v-5.895h5.895ZM59.498 53.529v5.894h-5.895V53.53h5.895ZM59.498 47.634v5.895h-5.895v-5.895h5.895ZM59.498 41.727v5.907h-5.895v-5.907h5.895Z"
        fill="#F2F2F2" />
    <path d="M59.498 35.833v5.895h-5.895v-5.895h5.895ZM59.498 29.938v5.895h-5.895v-5.895h5.895Z" fill="#fff" />
    <path d="M53.603 83.014v5.894h-5.907v-5.894h5.907Z" fill="#CEE0E0" />
    <path d="M53.603 77.12v5.894h-5.907V77.12h5.907ZM53.603 71.213v5.907h-5.907v-5.907h5.907Z" fill="#CEE0E0" />
    <path d="M53.603 65.318v5.895h-5.907v-5.895h5.907ZM53.603 59.423v5.895h-5.907v-5.895h5.907Z" fill="#F2F2F2" />
    <path d="M53.603 53.529v5.894h-5.907V53.53h5.907Z" fill="#CEE0E0" />
    <path d="M53.603 47.634v5.895h-5.907v-5.895h5.907ZM53.603 41.727v5.907h-5.907v-5.907h5.907Z" fill="#F2F2F2" />
    <path d="M53.603 35.833v5.895h-5.907v-5.895h5.907Z" fill="#F2F2F2" />
    <path d="M53.603 29.938v5.895h-5.907v-5.895h5.907Z" fill="#fff" />
    <path
        d="M47.696 77.12v5.894h-5.895V77.12h5.895ZM47.696 71.213v5.907h-5.895v-5.907h5.895ZM47.696 65.318v5.895h-5.895v-5.895h5.895ZM47.696 59.423v5.895h-5.895v-5.895h5.895ZM47.696 53.529v5.894h-5.895V53.53h5.895Z"
        fill="#CEE0E0" />
    <path d="M47.696 47.634v5.895h-5.895v-5.895h5.895ZM47.696 41.727v5.907h-5.895v-5.907h5.895Z" fill="#F2F2F2" />
    <path d="M47.696 35.833v5.895h-5.895v-5.895h5.895Z" fill="#F2F2F2" />
    <path d="M47.696 29.938v5.895h-5.895v-5.895h5.895Z" fill="#fff" />
    <path
        d="M41.801 77.12v5.894h-5.894V77.12h5.895ZM41.801 71.213v5.907h-5.894v-5.907h5.895ZM41.801 65.318v5.895h-5.894v-5.895h5.895ZM41.801 59.423v5.895h-5.894v-5.895h5.895Z"
        fill="#CEE0E0" />
    <path
        d="M41.801 53.529v5.894h-5.894V53.53h5.895ZM41.801 47.634v5.895h-5.894v-5.895h5.895ZM41.801 41.727v5.907h-5.894v-5.907h5.895Z"
        fill="#F2F2F2" />
    <path d="M41.801 35.833v5.895h-5.894v-5.895h5.895Z" fill="#F2F2F2" />
    <path d="M41.801 29.938v5.895h-5.894v-5.895h5.895Z" fill="#fff" />
    <path
        d="M35.907 77.12v5.894h-5.894V77.12h5.894ZM35.907 71.213v5.907h-5.894v-5.907h5.894ZM35.907 65.318v5.895h-5.894v-5.895h5.894ZM35.907 59.423v5.895h-5.894v-5.895h5.894ZM35.907 53.529v5.894h-5.894V53.53h5.894Z"
        fill="#CEE0E0" />
    <path d="M35.907 47.634v5.895h-5.894v-5.895h5.894ZM35.907 41.727v5.907h-5.894v-5.907h5.894Z" fill="#F2F2F2" />
    <path d="M35.907 35.833v5.895h-5.894v-5.895h5.894ZM35.907 29.938v5.895h-5.894v-5.895h5.894Z" fill="#fff" />
    <path d="M30.012 77.12v5.894h-5.894V77.12h5.894ZM30.012 71.213v5.907h-5.894v-5.907h5.894Z" fill="#CEE0E0" />
    <path d="M30.012 65.318v5.895h-5.894v-5.895h5.894ZM30.012 59.423v5.895h-5.894v-5.895h5.894Z" fill="#F2F2F2" />
    <path d="M30.012 53.529v5.894h-5.894V53.53h5.894Z" fill="#CEE0E0" />
    <path d="M30.012 47.634v5.895h-5.894v-5.895h5.894Z" fill="#F2F2F2" />
    <path d="M30.012 41.727v5.907h-5.894v-5.907h5.894Z" fill="#fff" />
    <path d="M30.012 35.833v5.895h-5.894v-5.895h5.894Z" fill="#fff" />
    <path d="M24.118 77.12v5.894h-5.895V77.12h5.895ZM24.118 71.213v5.907h-5.895v-5.907h5.895Z" fill="#CEE0E0" />
    <path
        d="M24.118 65.318v5.895h-5.895v-5.895h5.895ZM24.118 59.423v5.895h-5.895v-5.895h5.895ZM24.118 53.529v5.894h-5.895V53.53h5.895Z"
        fill="#F2F2F2" />
    <path d="M18.223 77.12v5.894h-5.906V77.12h5.906ZM18.223 71.213v5.907h-5.906v-5.907h5.906Z" fill="#CEE0E0" />
    <path
        d="M18.223 65.318v5.895h-5.906v-5.895h5.906ZM18.223 59.423v5.895h-5.906v-5.895h5.906ZM18.223 53.529v5.894h-5.906V53.53h5.906Z"
        fill="#F2F2F2" />
    <path d="M12.317 71.213v5.907H6.422v-5.907h5.895Z" fill="#CEE0E0" />
    <path
        d="M12.317 65.318v5.895H6.422v-5.895h5.895ZM12.317 59.423v5.895H6.422v-5.895h5.895ZM12.317 53.529v5.894H6.422V53.53h5.895Z"
        fill="#F2F2F2" />
    <path d="M6.422 71.213v5.907H.528v-5.907h5.894Z" fill="#CEE0E0" />
    <path d="M6.422 65.318v5.895H.528v-5.895h5.894ZM6.422 59.423v5.895H.528v-5.895h5.894Z" fill="#F2F2F2" />
    <path d="M230.512 24.044v5.894h-5.907v-5.894h5.907Z" fill="#fff" />
</svg>