<svg width="284" height="89" fill="none" xmlns="http://www.w3.org/2000/svg">
    <path
        d="M283.575 77.12v5.894h-5.895V77.12h5.895zm0-5.907v5.907h-5.895v-5.907h5.895zm0-5.895v5.895h-5.895v-5.895h5.895zm-5.895 17.696v5.894h-5.894v-5.894h5.894z"
        fill="#CEE0E0" />
    <path d="M277.68 77.12v5.894h-5.894V77.12h5.894zm0-5.907v5.907h-5.894v-5.907h5.894z" fill="#CEE0E0" />
    <path d="M277.68 65.318v5.895h-5.894v-5.895h5.894z" fill="#F2F2F2" />
    <path d="M277.68 59.423v5.895h-5.894v-5.895h5.894z" fill="#fff" />
    <path d="M271.786 83.014v5.894h-5.895v-5.894h5.896z" fill="#CEE0E0" />
    <path d="M271.786 77.12v5.894h-5.895V77.12h5.896z" fill="#CEE0E0" />
    <path d="M271.786 71.213v5.907h-5.895v-5.907h5.896zm0-5.895v5.895h-5.895v-5.895h5.896z" fill="#F2F2F2" />
    <path
        d="M271.786 59.423v5.895h-5.895v-5.895h5.896zm0-5.894v5.893h-5.895V53.53h5.896zm0-5.896v5.895h-5.895v-5.896h5.896zm0-5.907v5.907h-5.895v-5.907h5.896z"
        fill="#fff" />
    <path d="M265.89 83.014v5.894h-5.894v-5.894h5.895z" fill="#CEE0E0" />
    <path d="M265.89 77.12v5.894h-5.894V77.12h5.895z" fill="#CEE0E0" />
    <path
        d="M265.89 71.213v5.907h-5.894v-5.907h5.895zm0-5.895v5.895h-5.894v-5.895h5.895zm0-5.895v5.895h-5.894v-5.895h5.895zm0-5.894v5.893h-5.894V53.53h5.895zm0-5.896v5.895h-5.894v-5.896h5.895z"
        fill="#F2F2F2" />
    <path d="M265.89 41.727v5.907h-5.894v-5.907h5.895z" fill="#fff" />
    <path d="M265.89 35.833v5.895h-5.894v-5.895h5.895z" fill="#fff" />
    <path d="M259.996 77.12v5.894h-5.906V77.12h5.906zm0-5.907v5.907h-5.906v-5.907h5.906z" fill="#CEE0E0" />
    <path
        d="M259.996 65.318v5.895h-5.906v-5.895h5.906zm0-5.895v5.895h-5.906v-5.895h5.906zm0-5.894v5.893h-5.906V53.53h5.906zm0-5.896v5.895h-5.906v-5.896h5.906zm0-5.907v5.907h-5.906v-5.907h5.906z"
        fill="#F2F2F2" />
    <path d="M259.996 35.833v5.895h-5.906v-5.895h5.906z" fill="#fff" />
    <path d="M254.09 83.014v5.894h-5.894v-5.894h5.894z" fill="#CEE0E0" />
    <path d="M254.09 77.12v5.894h-5.894V77.12h5.894zm0-5.907v5.907h-5.894v-5.907h5.894z" fill="#CEE0E0" />
    <path d="M254.09 65.318v5.895h-5.894v-5.895h5.894zm0-5.895v5.895h-5.894v-5.895h5.894z" fill="#F2F2F2" />
    <path d="M254.09 53.53v5.893h-5.894V53.53h5.894zm0-5.896v5.895h-5.894v-5.896h5.894z" fill="#CEE0E0" />
    <path d="M254.09 41.727v5.907h-5.894v-5.907h5.894z" fill="#F2F2F2" />
    <path d="M254.09 35.833v5.895h-5.894v-5.895h5.894zm0-5.895v5.895h-5.894v-5.895h5.894z" fill="#fff" />
    <path d="M248.196 83.014v5.894h-5.894v-5.894h5.894z" fill="#CEE0E0" />
    <path d="M248.196 77.12v5.894h-5.894V77.12h5.894zm0-5.907v5.907h-5.894v-5.907h5.894z" fill="#CEE0E0" />
    <path d="M248.196 65.318v5.895h-5.894v-5.895h5.894zm0-5.895v5.895h-5.894v-5.895h5.894z" fill="#F2F2F2" />
    <path d="M248.196 53.53v5.893h-5.894V53.53h5.894z" fill="#CEE0E0" />
    <path d="M248.196 47.634v5.895h-5.894v-5.896h5.894zm0-5.907v5.907h-5.894v-5.907h5.894z" fill="#F2F2F2" />
    <path d="M248.196 35.833v5.895h-5.894v-5.895h5.894z" fill="#F2F2F2" />
    <path d="M248.196 29.938v5.895h-5.894v-5.895h5.894z" fill="#fff" />
    <path d="M242.302 83.014v5.894h-5.895v-5.894h5.895z" fill="#CEE0E0" />
    <path
        d="M242.302 77.12v5.894h-5.895V77.12h5.895zm0-5.907v5.907h-5.895v-5.907h5.895zm0-5.895v5.895h-5.895v-5.895h5.895zm0-5.895v5.895h-5.895v-5.895h5.895zm0-5.894v5.893h-5.895V53.53h5.895zm0-5.896v5.895h-5.895v-5.896h5.895z"
        fill="#CEE0E0" />
    <path d="M242.302 41.727v5.907h-5.895v-5.907h5.895z" fill="#F2F2F2" />
    <path d="M242.302 35.833v5.895h-5.895v-5.895h5.895z" fill="#F2F2F2" />
    <path d="M242.302 29.938v5.895h-5.895v-5.895h5.895z" fill="#fff" />
    <path d="M236.407 83.014v5.894h-5.895v-5.894h5.895z" fill="#CEE0E0" />
    <path
        d="M236.407 77.12v5.894h-5.895V77.12h5.895zm0-5.907v5.907h-5.895v-5.907h5.895zm0-5.895v5.895h-5.895v-5.895h5.895zm0-5.895v5.895h-5.895v-5.895h5.895z"
        fill="#CEE0E0" />
    <path d="M236.407 53.53v5.893h-5.895V53.53h5.895z" fill="#F2F2F2" />
    <path d="M236.407 47.634v5.895h-5.895v-5.896h5.895z" fill="#CEE0E0" />
    <path d="M236.407 41.727v5.907h-5.895v-5.907h5.895z" fill="#F2F2F2" />
    <path d="M236.407 35.833v5.895h-5.895v-5.895h5.895z" fill="#F2F2F2" />
    <path d="M236.407 29.938v5.895h-5.895v-5.895h5.895z" fill="#fff" />
    <path d="M236.407 24.044v5.894h-5.895v-5.894h5.895z" fill="#fff" />
    <path d="M230.512 83.014v5.894h-5.907v-5.894h5.907z" fill="#CEE0E0" />
    <path
        d="M230.512 77.12v5.894h-5.907V77.12h5.907zm0-5.907v5.907h-5.907v-5.907h5.907zm0-5.895v5.895h-5.907v-5.895h5.907z"
        fill="#CEE0E0" />
    <path
        d="M230.512 59.423v5.895h-5.907v-5.895h5.907zm0-5.894v5.893h-5.907V53.53h5.907zm0-5.896v5.895h-5.907v-5.896h5.907zm0-5.907v5.907h-5.907v-5.907h5.907z"
        fill="#F2F2F2" />
    <path d="M230.512 35.833v5.895h-5.907v-5.895h5.907zm0-5.895v5.895h-5.907v-5.895h5.907z" fill="#F2F2F2" />
    <path d="M230.512 18.15v5.894h-5.907V18.15h5.907zm0-5.908v5.907h-5.907V12.24h5.907z" fill="#fff" />
    <path d="M224.606 77.12v5.894h-5.895V77.12h5.896zm0-5.907v5.907h-5.895v-5.907h5.896z" fill="#CEE0E0" />
    <path
        d="M224.606 65.318v5.895h-5.895v-5.895h5.896zm0-5.895v5.895h-5.895v-5.895h5.896zm0-5.894v5.893h-5.895V53.53h5.896zm0-5.896v5.895h-5.895v-5.896h5.896zm0-5.907v5.907h-5.895v-5.907h5.896z"
        fill="#F2F2F2" />
    <path d="M224.606 35.833v5.895h-5.895v-5.895h5.896zm0-5.895v5.895h-5.895v-5.895h5.896z" fill="#F2F2F2" />
    <path d="M224.606 24.044v5.894h-5.895v-5.894h5.896zm0-5.895v5.894h-5.895V18.15h5.896z" fill="#F2F2F2" />
    <path d="M224.606 12.242v5.907h-5.895V12.24h5.896zm0-5.893v5.892h-5.895V6.35h5.896z" fill="#fff" />
    <path d="M218.71 77.12v5.894h-5.894V77.12h5.895zm0-5.907v5.907h-5.894v-5.907h5.895z" fill="#CEE0E0" />
    <path d="M218.71 65.318v5.895h-5.894v-5.895h5.895zm0-5.895v5.895h-5.894v-5.895h5.895z" fill="#F2F2F2" />
    <path
        d="M218.71 53.53v5.893h-5.894V53.53h5.895zm0-5.896v5.895h-5.894v-5.896h5.895zm0-5.907v5.907h-5.894v-5.907h5.895z"
        fill="#fff" />
    <path d="M218.71 35.833v5.895h-5.894v-5.895h5.895zm0-5.895v5.895h-5.894v-5.895h5.895z" fill="#F2F2F2" />
    <path
        d="M218.71 24.044v5.894h-5.894v-5.894h5.895zm0-5.895v5.894h-5.894V18.15h5.895zm0-5.908v5.907h-5.894V12.24h5.895z"
        fill="#F2F2F2" />
    <path d="M218.71 6.35v5.892h-5.894V6.35h5.895z" fill="#fff" />
    <path d="M212.816 77.12v5.894h-5.894V77.12h5.894z" fill="#CEE0E0" />
    <path
        d="M212.816 71.213v5.907h-5.894v-5.907h5.894zm0-5.895v5.895h-5.894v-5.895h5.894zm0-5.895v5.895h-5.894v-5.895h5.894z"
        fill="#F2F2F2" />
    <path
        d="M212.816 53.53v5.893h-5.894V53.53h5.894zm0-5.896v5.895h-5.894v-5.896h5.894zm0-5.907v5.907h-5.894v-5.907h5.894z"
        fill="#fff" />
    <path d="M212.816 35.833v5.895h-5.894v-5.895h5.894zm0-5.895v5.895h-5.894v-5.895h5.894z" fill="#F2F2F2" />
    <path
        d="M212.816 24.044v5.894h-5.894v-5.894h5.894zm0-5.895v5.894h-5.894V18.15h5.894zm0-5.908v5.907h-5.894V12.24h5.894z"
        fill="#F2F2F2" />
    <path d="M212.816 6.35v5.892h-5.894V6.35h5.894z" fill="#fff" />
    <path d="M212.816.454V6.35h-5.894V.454h5.894z" fill="#fff" />
    <path d="M206.922 77.12v5.894h-5.895V77.12h5.895z" fill="#CEE0E0" />
    <path
        d="M206.922 71.213v5.907h-5.895v-5.907h5.895zm0-5.895v5.895h-5.895v-5.895h5.895zm0-5.895v5.895h-5.895v-5.895h5.895z"
        fill="#F2F2F2" />
    <path d="M206.922 53.53v5.893h-5.895V53.53h5.895zm0-5.896v5.895h-5.895v-5.896h5.895z" fill="#fff" />
    <path d="M206.922 41.727v5.907h-5.895v-5.907h5.895z" fill="#F2F2F2" />
    <path d="M206.922 35.833v5.895h-5.895v-5.895h5.895zm0-5.895v5.895h-5.895v-5.895h5.895z" fill="#F2F2F2" />
    <path d="M206.922 24.044v5.894h-5.895v-5.894h5.895zm0-5.895v5.894h-5.895V18.15h5.895z" fill="#fff" />
    <path d="M206.922 12.242v5.907h-5.895V12.24h5.895zm0-5.893v5.892h-5.895V6.35h5.895z" fill="#F2F2F2" />
    <path d="M206.922.454V6.35h-5.895V.454h5.895z" fill="#fff" />
    <path d="M201.027 77.12v5.894h-5.907V77.12h5.907zm0-5.907v5.907h-5.907v-5.907h5.907z" fill="#CEE0E0" />
    <path
        d="M201.027 65.318v5.895h-5.907v-5.895h5.907zm0-5.895v5.895h-5.907v-5.895h5.907zm0-5.894v5.893h-5.907V53.53h5.907zm0-5.896v5.895h-5.907v-5.896h5.907zm0-5.907v5.907h-5.907v-5.907h5.907z"
        fill="#F2F2F2" />
    <path d="M201.027 35.833v5.895h-5.907v-5.895h5.907z" fill="#CEE0E0" />
    <path d="M201.027 29.938v5.895h-5.907v-5.895h5.907z" fill="#F2F2F2" />
    <path d="M201.027 24.044v5.894h-5.907v-5.894h5.907zm0-5.895v5.894h-5.907V18.15h5.907z" fill="#fff" />
    <path d="M201.027 12.242v5.907h-5.907V12.24h5.907zm0-5.893v5.892h-5.907V6.35h5.907z" fill="#F2F2F2" />
    <path d="M201.027.454V6.35h-5.907V.454h5.907z" fill="#fff" />
    <path d="M195.12 77.12v5.894h-5.894V77.12h5.894zm0-5.907v5.907h-5.894v-5.907h5.894z" fill="#CEE0E0" />
    <path
        d="M195.12 65.318v5.895h-5.894v-5.895h5.894zm0-5.895v5.895h-5.894v-5.895h5.894zm0-5.894v5.893h-5.894V53.53h5.894zm0-5.896v5.895h-5.894v-5.896h5.894z"
        fill="#F2F2F2" />
    <path d="M195.12 41.727v5.907h-5.894v-5.907h5.894z" fill="#CEE0E0" />
    <path d="M195.12 35.833v5.895h-5.894v-5.895h5.894z" fill="#CEE0E0" />
    <path d="M195.12 29.938v5.895h-5.894v-5.895h5.894z" fill="#F2F2F2" />
    <path
        d="M195.12 24.044v5.894h-5.894v-5.894h5.894zm0-5.895v5.894h-5.894V18.15h5.894zm0-5.908v5.907h-5.894V12.24h5.894z"
        fill="#F2F2F2" />
    <path d="M195.12 6.35v5.892h-5.894V6.35h5.894z" fill="#fff" />
    <path d="M195.12.454V6.35h-5.894V.454h5.894z" fill="#fff" />
    <path d="M189.225 77.12v5.894h-5.894V77.12h5.895zm0-5.907v5.907h-5.894v-5.907h5.895z" fill="#CEE0E0" />
    <path
        d="M189.225 65.318v5.895h-5.894v-5.895h5.895zm0-5.895v5.895h-5.894v-5.895h5.895zm0-5.894v5.893h-5.894V53.53h5.895z"
        fill="#F2F2F2" />
    <path d="M189.225 47.634v5.895h-5.894v-5.896h5.895zm0-5.907v5.907h-5.894v-5.907h5.895z" fill="#CEE0E0" />
    <path d="M189.225 35.833v5.895h-5.894v-5.895h5.895zm0-5.895v5.895h-5.894v-5.895h5.895z" fill="#F2F2F2" />
    <path d="M189.225 24.044v5.894h-5.894v-5.894h5.895zm0-5.895v5.894h-5.894V18.15h5.895z" fill="#F2F2F2" />
    <path d="M189.225 12.242v5.907h-5.894V12.24h5.895zm0-5.893v5.892h-5.894V6.35h5.895z" fill="#fff" />
    <path
        d="M183.33 77.12v5.894h-5.892V77.12h5.893zm0-5.907v5.907h-5.892v-5.907h5.893zm0-5.895v5.895h-5.892v-5.895h5.893zm0-5.895v5.895h-5.892v-5.895h5.893zm0-5.894v5.893h-5.892V53.53h5.893zm0-5.896v5.895h-5.892v-5.896h5.893zm0-5.907v5.907h-5.892v-5.907h5.893z"
        fill="#CEE0E0" />
    <path d="M183.33 35.833v5.895h-5.892v-5.895h5.893zm0-5.895v5.895h-5.892v-5.895h5.893z" fill="#F2F2F2" />
    <path d="M183.33 24.044v5.894h-5.892v-5.894h5.893zm0-5.895v5.894h-5.892V18.15h5.893z" fill="#F2F2F2" />
    <path d="M183.33 12.242v5.907h-5.892V12.24h5.893z" fill="#fff" />
    <path
        d="M177.438 77.12v5.894h-5.895V77.12h5.895zm0-5.907v5.907h-5.895v-5.907h5.895zm0-5.895v5.895h-5.895v-5.895h5.895zm0-5.895v5.895h-5.895v-5.895h5.895zm0-5.894v5.893h-5.895V53.53h5.895zm0-5.896v5.895h-5.895v-5.896h5.895zm0-5.907v5.907h-5.895v-5.907h5.895z"
        fill="#CEE0E0" />
    <path d="M177.438 35.833v5.895h-5.895v-5.895h5.895zm0-5.895v5.895h-5.895v-5.895h5.895z" fill="#F2F2F2" />
    <path d="M177.438 24.044v5.894h-5.895v-5.894h5.895z" fill="#F2F2F2" />
    <path d="M177.438 18.15v5.894h-5.895V18.15h5.895zm0-5.908v5.907h-5.895V12.24h5.895z" fill="#fff" />
    <path
        d="M171.543 77.12v5.894h-5.907V77.12h5.907zm0-5.907v5.907h-5.907v-5.907h5.907zm0-5.895v5.895h-5.907v-5.895h5.907zm0-5.895v5.895h-5.907v-5.895h5.907z"
        fill="#CEE0E0" />
    <path d="M171.543 53.53v5.893h-5.907V53.53h5.907zm0-5.896v5.895h-5.907v-5.896h5.907z" fill="#F2F2F2" />
    <path d="M171.543 41.727v5.907h-5.907v-5.907h5.907z" fill="#CEE0E0" />
    <path d="M171.543 35.833v5.895h-5.907v-5.895h5.907z" fill="#CEE0E0" />
    <path d="M171.543 29.938v5.895h-5.907v-5.895h5.907z" fill="#F2F2F2" />
    <path d="M171.543 24.044v5.894h-5.907v-5.894h5.907z" fill="#fff" />
    <path d="M165.636 83.014v5.894h-5.894v-5.894h5.894z" fill="#CEE0E0" />
    <path d="M165.636 77.12v5.894h-5.894V77.12h5.894zm0-5.907v5.907h-5.894v-5.907h5.894z" fill="#CEE0E0" />
    <path
        d="M165.636 65.318v5.895h-5.894v-5.895h5.894zm0-5.895v5.895h-5.894v-5.895h5.894zm0-5.894v5.893h-5.894V53.53h5.894zm0-5.896v5.895h-5.894v-5.896h5.894zm0-5.907v5.907h-5.894v-5.907h5.894z"
        fill="#F2F2F2" />
    <path d="M165.636 35.833v5.895h-5.894v-5.895h5.894zm0-5.895v5.895h-5.894v-5.895h5.894z" fill="#fff" />
    <path d="M159.742 83.014v5.894h-5.895v-5.894h5.895z" fill="#CEE0E0" />
    <path d="M159.742 77.12v5.894h-5.895V77.12h5.895z" fill="#CEE0E0" />
    <path
        d="M159.742 71.213v5.907h-5.895v-5.907h5.895zm0-5.895v5.895h-5.895v-5.895h5.895zm0-5.895v5.895h-5.895v-5.895h5.895zm0-5.894v5.893h-5.895V53.53h5.895zm0-5.896v5.895h-5.895v-5.896h5.895z"
        fill="#F2F2F2" />
    <path d="M159.742 41.727v5.907h-5.895v-5.907h5.895z" fill="#fff" />
    <path d="M159.742 35.833v5.895h-5.895v-5.895h5.895z" fill="#fff" />
    <path d="M153.847 83.014v5.894h-5.895v-5.894h5.895z" fill="#CEE0E0" />
    <path d="M153.847 77.12v5.894h-5.895V77.12h5.895z" fill="#CEE0E0" />
    <path
        d="M153.847 71.213v5.907h-5.895v-5.907h5.895zm0-5.895v5.895h-5.895v-5.895h5.895zm0-5.895v5.895h-5.895v-5.895h5.895zm0-5.894v5.893h-5.895V53.53h5.895z"
        fill="#F2F2F2" />
    <path d="M153.847 47.634v5.895h-5.895v-5.896h5.895zm0-5.907v5.907h-5.895v-5.907h5.895z" fill="#fff" />
    <path d="M147.952 83.014v5.894h-5.894v-5.894h5.894z" fill="#CEE0E0" />
    <path
        d="M147.952 77.12v5.894h-5.894V77.12h5.894zm0-5.907v5.907h-5.894v-5.907h5.894zm0-5.895v5.895h-5.894v-5.895h5.894z"
        fill="#F2F2F2" />
    <path
        d="M147.952 59.423v5.895h-5.894v-5.895h5.894zm0-5.894v5.893h-5.894V53.53h5.894zm0-5.896v5.895h-5.894v-5.896h5.894z"
        fill="#fff" />
    <path d="M142.058 83.014v5.894h-5.907v-5.894h5.908z" fill="#CEE0E0" />
    <path
        d="M142.058 77.12v5.894h-5.907V77.12h5.908zm0-5.907v5.907h-5.907v-5.907h5.908zm0-5.895v5.895h-5.907v-5.895h5.908z"
        fill="#F2F2F2" />
    <path d="M142.058 59.423v5.895h-5.907v-5.895h5.908z" fill="#fff" />
    <path d="M136.15 83.014v5.894h-5.894v-5.894h5.895z" fill="#CEE0E0" />
    <path
        d="M136.15 77.12v5.894h-5.894V77.12h5.895zm0-5.907v5.907h-5.894v-5.907h5.895zm0-5.895v5.895h-5.894v-5.895h5.895z"
        fill="#F2F2F2" />
    <path d="M136.15 59.423v5.895h-5.894v-5.895h5.895zm0-5.894v5.893h-5.894V53.53h5.895z" fill="#fff" />
    <path d="M130.256 83.014v5.894h-5.894v-5.894h5.894z" fill="#CEE0E0" />
    <path
        d="M130.256 77.12v5.894h-5.894V77.12h5.894zm0-5.907v5.907h-5.894v-5.907h5.894zm0-5.895v5.895h-5.894v-5.895h5.894zm0-5.895v5.895h-5.894v-5.895h5.894z"
        fill="#F2F2F2" />
    <path d="M130.256 53.53v5.893h-5.894V53.53h5.894z" fill="#fff" />
    <path d="M124.36 83.014v5.894h-5.893v-5.894h5.894z" fill="#CEE0E0" />
    <path d="M124.36 77.12v5.894h-5.893V77.12h5.894z" fill="#CEE0E0" />
    <path
        d="M124.36 71.213v5.907h-5.893v-5.907h5.894zm0-5.895v5.895h-5.893v-5.895h5.894zm0-5.895v5.895h-5.893v-5.895h5.894z"
        fill="#F2F2F2" />
    <path d="M124.36 53.53v5.893h-5.893V53.53h5.894z" fill="#fff" />
    <path d="M118.467 83.014v5.894h-5.895v-5.894h5.895z" fill="#CEE0E0" />
    <path d="M118.467 77.12v5.894h-5.895V77.12h5.895zm0-5.907v5.907h-5.895v-5.907h5.895z" fill="#CEE0E0" />
    <path
        d="M118.467 65.318v5.895h-5.895v-5.895h5.895zm0-5.895v5.895h-5.895v-5.895h5.895zm0-5.894v5.893h-5.895V53.53h5.895zm-5.895 23.59v5.894h-5.906V77.12h5.906zm0-5.907v5.907h-5.906v-5.907h5.906zm0-5.895v5.895h-5.906v-5.895h5.906zm0-5.895v5.895h-5.906v-5.895h5.906z"
        fill="#F2F2F2" />
    <path d="M88.982 77.12v5.894h-5.894V77.12h5.894z" fill="#CEE0E0" />
    <path d="M88.982 71.213v5.907h-5.894v-5.907h5.894z" fill="#F2F2F2" />
    <path d="M88.982 65.318v5.895h-5.894v-5.895h5.894z" fill="#CEE0E0" />
    <path d="M88.982 59.423v5.895h-5.894v-5.895h5.894zm0-5.894v5.893h-5.894V53.53h5.894z" fill="#F2F2F2" />
    <path d="M83.088 77.12v5.894H77.18V77.12h5.908zm0-5.907v5.907H77.18v-5.907h5.908zm0-5.895v5.895H77.18v-5.895h5.908z"
        fill="#CEE0E0" />
    <path
        d="M83.088 59.423v5.895H77.18v-5.895h5.908zm0-5.894v5.893H77.18V53.53h5.908zm0-5.896v5.895H77.18v-5.896h5.908z"
        fill="#F2F2F2" />
    <path
        d="M77.18 77.12v5.894h-5.893V77.12h5.894zm0-5.907v5.907h-5.893v-5.907h5.894zm0-5.895v5.895h-5.893v-5.895h5.894zm0-5.895v5.895h-5.893v-5.895h5.894z"
        fill="#CEE0E0" />
    <path d="M77.18 53.53v5.893h-5.893V53.53h5.894zm0-5.896v5.895h-5.893v-5.896h5.894z" fill="#F2F2F2" />
    <path d="M71.287 83.014v5.894h-5.895v-5.894h5.895z" fill="#CEE0E0" />
    <path d="M71.287 77.12v5.894h-5.895V77.12h5.895zm0-5.907v5.907h-5.895v-5.907h5.895z" fill="#CEE0E0" />
    <path d="M71.287 65.318v5.895h-5.895v-5.895h5.895z" fill="#F2F2F2" />
    <path d="M71.287 59.423v5.895h-5.895v-5.895h5.895zm0-5.894v5.893h-5.895V53.53h5.895z" fill="#fff" />
    <path d="M71.287 47.634v5.895h-5.895v-5.896h5.895z" fill="#F2F2F2" />
    <path d="M65.392 83.014v5.894h-5.894v-5.894h5.894z" fill="#CEE0E0" />
    <path d="M65.392 77.12v5.894h-5.894V77.12h5.894zm0-5.907v5.907h-5.894v-5.907h5.894z" fill="#CEE0E0" />
    <path d="M65.392 65.318v5.895h-5.894v-5.895h5.894z" fill="#F2F2F2" />
    <path d="M65.392 59.423v5.895h-5.894v-5.895h5.894zm0-5.894v5.893h-5.894V53.53h5.894z" fill="#fff" />
    <path d="M65.392 47.634v5.895h-5.894v-5.896h5.894z" fill="#F2F2F2" />
    <path d="M65.392 41.727v5.907h-5.894v-5.907h5.894z" fill="#fff" />
    <path d="M65.392 35.833v5.895h-5.894v-5.895h5.894z" fill="#fff" />
    <path d="M59.498 83.014v5.894h-5.895v-5.894h5.895z" fill="#CEE0E0" />
    <path d="M59.498 77.12v5.894h-5.895V77.12h5.895z" fill="#CEE0E0" />
    <path
        d="M59.498 71.213v5.907h-5.895v-5.907h5.895zm0-5.895v5.895h-5.895v-5.895h5.895zm0-5.895v5.895h-5.895v-5.895h5.895zm0-5.894v5.893h-5.895V53.53h5.895zm0-5.896v5.895h-5.895v-5.896h5.895zm0-5.907v5.907h-5.895v-5.907h5.895z"
        fill="#F2F2F2" />
    <path d="M59.498 35.833v5.895h-5.895v-5.895h5.895zm0-5.895v5.895h-5.895v-5.895h5.895z" fill="#fff" />
    <path d="M53.603 83.014v5.894h-5.907v-5.894h5.907z" fill="#CEE0E0" />
    <path d="M53.603 77.12v5.894h-5.907V77.12h5.907zm0-5.907v5.907h-5.907v-5.907h5.907z" fill="#CEE0E0" />
    <path d="M53.603 65.318v5.895h-5.907v-5.895h5.907zm0-5.895v5.895h-5.907v-5.895h5.907z" fill="#F2F2F2" />
    <path d="M53.603 53.53v5.893h-5.907V53.53h5.907z" fill="#CEE0E0" />
    <path d="M53.603 47.634v5.895h-5.907v-5.896h5.907zm0-5.907v5.907h-5.907v-5.907h5.907z" fill="#F2F2F2" />
    <path d="M53.603 35.833v5.895h-5.907v-5.895h5.907z" fill="#F2F2F2" />
    <path d="M53.603 29.938v5.895h-5.907v-5.895h5.907z" fill="#fff" />
    <path
        d="M47.696 77.12v5.894H41.8V77.12h5.896zm0-5.907v5.907H41.8v-5.907h5.896zm0-5.895v5.895H41.8v-5.895h5.896zm0-5.895v5.895H41.8v-5.895h5.896zm0-5.894v5.893H41.8V53.53h5.896z"
        fill="#CEE0E0" />
    <path d="M47.696 47.634v5.895H41.8v-5.896h5.896zm0-5.907v5.907H41.8v-5.907h5.896z" fill="#F2F2F2" />
    <path d="M47.696 35.833v5.895H41.8v-5.895h5.896z" fill="#F2F2F2" />
    <path d="M47.696 29.938v5.895H41.8v-5.895h5.896z" fill="#fff" />
    <path
        d="M41.8 77.12v5.894h-5.893V77.12h5.895zm0-5.907v5.907h-5.893v-5.907h5.895zm0-5.895v5.895h-5.893v-5.895h5.895zm0-5.895v5.895h-5.893v-5.895h5.895z"
        fill="#CEE0E0" />
    <path
        d="M41.8 53.53v5.893h-5.893V53.53h5.895zm0-5.896v5.895h-5.893v-5.896h5.895zm0-5.907v5.907h-5.893v-5.907h5.895z"
        fill="#F2F2F2" />
    <path d="M41.8 35.833v5.895h-5.893v-5.895h5.895z" fill="#F2F2F2" />
    <path d="M41.8 29.938v5.895h-5.893v-5.895h5.895z" fill="#fff" />
    <path
        d="M35.907 77.12v5.894h-5.894V77.12h5.894zm0-5.907v5.907h-5.894v-5.907h5.894zm0-5.895v5.895h-5.894v-5.895h5.894zm0-5.895v5.895h-5.894v-5.895h5.894zm0-5.894v5.893h-5.894V53.53h5.894z"
        fill="#CEE0E0" />
    <path d="M35.907 47.634v5.895h-5.894v-5.896h5.894zm0-5.907v5.907h-5.894v-5.907h5.894z" fill="#F2F2F2" />
    <path d="M35.907 35.833v5.895h-5.894v-5.895h5.894zm0-5.895v5.895h-5.894v-5.895h5.894z" fill="#fff" />
    <path d="M30.012 77.12v5.894h-5.894V77.12h5.894zm0-5.907v5.907h-5.894v-5.907h5.894z" fill="#CEE0E0" />
    <path d="M30.012 65.318v5.895h-5.894v-5.895h5.894zm0-5.895v5.895h-5.894v-5.895h5.894z" fill="#F2F2F2" />
    <path d="M30.012 53.53v5.893h-5.894V53.53h5.894z" fill="#CEE0E0" />
    <path d="M30.012 47.634v5.895h-5.894v-5.896h5.894z" fill="#F2F2F2" />
    <path d="M30.012 41.727v5.907h-5.894v-5.907h5.894z" fill="#fff" />
    <path d="M30.012 35.833v5.895h-5.894v-5.895h5.894z" fill="#fff" />
    <path d="M24.118 77.12v5.894h-5.895V77.12h5.895zm0-5.907v5.907h-5.895v-5.907h5.895z" fill="#CEE0E0" />
    <path
        d="M24.118 65.318v5.895h-5.895v-5.895h5.895zm0-5.895v5.895h-5.895v-5.895h5.895zm0-5.894v5.893h-5.895V53.53h5.895z"
        fill="#F2F2F2" />
    <path d="M18.223 77.12v5.894h-5.906V77.12h5.906zm0-5.907v5.907h-5.906v-5.907h5.906z" fill="#CEE0E0" />
    <path
        d="M18.223 65.318v5.895h-5.906v-5.895h5.906zm0-5.895v5.895h-5.906v-5.895h5.906zm0-5.894v5.893h-5.906V53.53h5.906z"
        fill="#F2F2F2" />
    <path d="M12.317 71.213v5.907H6.422v-5.907h5.895z" fill="#CEE0E0" />
    <path
        d="M12.317 65.318v5.895H6.422v-5.895h5.895zm0-5.895v5.895H6.422v-5.895h5.895zm0-5.894v5.893H6.422V53.53h5.895z"
        fill="#F2F2F2" />
    <path d="M6.422 71.213v5.907H.528v-5.907h5.894z" fill="#CEE0E0" />
    <path d="M6.422 65.318v5.895H.528v-5.895h5.894zm0-5.895v5.895H.528v-5.895h5.894z" fill="#F2F2F2" />
    <path d="M230.512 24.044v5.894h-5.907v-5.894h5.907z" fill="#fff" />
</svg>