<svg width="342" height="364" viewBox="0 0 342 364" fill="none" xmlns="http://www.w3.org/2000/svg">
    <path d="M141 223H161V243H181V263H262V283H181V263H161V243H141V223Z" fill="#F59F54" />
    <rect x="120" width="122" height="21" fill="#444444" />
    <rect x="120" y="343" width="122" height="21" fill="#444444" />
    <rect x="80" y="21" width="40" height="20" fill="#444444" />
    <path d="M60 61H80V41H120V21H242V41H140.5V61H100V81H80V101.5H60V141.919L40 142V243H20V122H40V81H60V61Z"
        fill="#EBE527" />
    <rect x="80" y="323" width="40" height="20" fill="#444444" />
    <rect x="80" y="303" width="40" height="20" fill="white" />
    <rect x="302" y="223" width="20" height="40" fill="#F59F54" />
    <rect x="282" y="263" width="20" height="40" fill="#F59F54" />
    <rect x="262" y="243" width="20" height="20" fill="#F59F54" />
    <rect x="282" y="243" width="20" height="20" fill="#EBE527" />
    <path d="M120 323H222V303H282V323H242V343H120V323Z" fill="#F59F54" />
    <rect x="242" y="323" width="40" height="20" fill="#444444" />
    <rect x="242" y="21" width="40" height="20" fill="#444444" />
    <rect x="242" y="41" width="40" height="20" fill="#EBE527" />
    <rect x="60" y="41" width="20" height="20" fill="#444444" />
    <rect x="60" y="303" width="20" height="20" fill="#444444" />
    <rect x="282" y="303" width="20" height="20" fill="#444444" />
    <rect x="282" y="41" width="20" height="20" fill="#444444" />
    <rect x="40" y="61" width="20" height="20" fill="#444444" />
    <rect x="40" y="283" width="20" height="20" fill="#444444" />
    <rect x="161" y="223" width="20" height="20" fill="#444444" />
    <rect x="161" y="122" width="20" height="20" fill="#444444" />
    <rect x="181" y="243" width="81" height="20" fill="#444444" />
    <rect x="181" y="102" width="81" height="20" fill="#444444" />
    <rect x="60" y="283" width="20" height="20" fill="white" />
    <rect x="20" y="81" width="20" height="41" fill="#444444" />
    <rect y="122" width="20" height="121" fill="#444444" />
    <rect x="141" y="142" width="20" height="81" fill="#444444" />
    <rect x="20" y="243" width="20" height="40" fill="#444444" />
    <rect x="40" y="243" width="20" height="40" fill="white" />
    <rect x="302" y="263" width="20" height="40" fill="#444444" />
    <rect x="302" y="61" width="20" height="40" fill="#444444" />
    <rect x="322" y="223" width="20" height="40" fill="#444444" />
    <rect x="322" y="101" width="20" height="41" fill="#444444" />
    <path d="M282 203H342V223H302V243H262V223H282V203Z" fill="#444444" />
    <path
        d="M140.5 41H242V61H302V101H322V142H302V122H261.5V102H242H181V122H161V142H141V222V243H161V263H181V283H262V263H282V303H222V323H120H80V303H60V283H40V243V142H60V101.5H80V81H100V61H140.5V41Z"
        fill="#EBE527" />
    <path d="M282 162H342V142H302V122H261.5V142H282V162Z" fill="#444444" />
    <path d="M20 122H40V81H59.75L60 61H80V41H120V61H100V81H80H59.75L60 101.5V122V142H40V243H20V142V122Z" fill="white" />
    <rect x="120" y="21" width="122" height="20" fill="white" />
    <rect x="80" y="303" width="40" height="20" fill="#F59F54" />
    <rect x="60" y="283" width="20" height="20" fill="#F59F54" />
</svg>