<svg width="62" height="42" viewBox="0 0 62 42" fill="none" xmlns="http://www.w3.org/2000/svg">
    <rect x="24.8481" width="4.10117" height="8.20233" fill="#333333" />
    <path
        d="M8.20224 16.6459H53.7976V20.7471H57.8987V33.0506H53.7976V37.1518H8.20224V33.0506H4.10107V20.7471H8.20224V16.6459Z"
        fill="#D7D7D7" />
    <rect x="41.4941" y="24.8483" width="4.10117" height="4.10117" fill="#7DBB78" />
    <rect x="45.5952" y="20.7471" width="4.10117" height="4.10117" fill="#999CF7" />
    <rect x="49.6965" y="24.8483" width="4.10117" height="4.10117" fill="#F40500" />
    <rect x="45.5952" y="28.9494" width="4.10117" height="4.10117" fill="#F6F504" />
    <rect x="33.0505" y="28.9494" width="4.10117" height="4.10117" fill="#333333" />
    <rect x="24.8481" y="28.9494" width="4.10117" height="4.10117" fill="#333333" />
    <rect x="4.10107" y="16.6459" width="4.10117" height="4.10117" fill="#333333" />
    <rect y="20.7471" width="4.10117" height="12.3035" fill="#333333" />
    <rect x="4.10107" y="33.0506" width="4.10117" height="4.10117" fill="#333333" />
    <rect x="53.7976" y="33.0506" width="4.10117" height="4.10117" fill="#333333" />
    <path d="M8.20239 12.5447H28.9495V8.20233H31.0001H33.0506V12.5447H53.7977V16.6459H8.20239V12.5447Z"
        fill="#333333" />
    <path d="M8.20239 37.1517H33.0506H53.7977V41.2529H8.20239V37.1517Z" fill="#333333" />
    <rect x="53.7976" y="16.6459" width="4.10117" height="4.10117" fill="#333333" />
    <rect x="57.8989" y="20.7471" width="4.10117" height="12.3035" fill="#333333" />
    <path
        d="M12.5448 20.7471H16.646V24.8482H20.7471V28.9494H16.646V34.0759H12.5448V28.9494H8.20239V24.8482H12.5448V20.7471Z"
        fill="#333333" />
</svg>