<svg width="24" height="24" viewBox="0 0 24 24" fill="none" xmlns="http://www.w3.org/2000/svg">
    <g clip-path="url(#clip0_2439_483)">
        <path d="M21.9472 8.68427H23.27V15.3157H21.9472V8.68427Z" fill="currentColor" />
        <path d="M20.6244 15.3157H21.9472V17.9701H20.6244V15.3157Z" fill="currentColor" />
        <path d="M20.6244 6.02994H21.9472V8.68428H20.6244V6.02994Z" fill="currentColor" />
        <path
            d="M21.9472 4.70714V3.38435H23.27V2.0528H16.6385V8.68427H17.9701V7.36148H19.2929V6.02993H20.6244V4.70714H21.9472Z"
            fill="currentColor" />
        <path d="M19.2929 17.9701H20.6244V19.2929H19.2929V17.9701Z" fill="currentColor" />
        <path d="M17.9701 19.2929H19.2929V20.6244H17.9701V19.2929Z" fill="currentColor" />
        <path d="M15.3157 20.6244H17.9701V21.9472H15.3157V20.6244Z" fill="currentColor" />
        <path d="M10.007 21.9472H15.3157V23.27H10.007V21.9472Z" fill="currentColor" />
        <path d="M20.6201 8.68427H21.9428V15.3157H20.6201V8.68427Z" fill="currentColor" />
        <path d="M19.2972 15.3157H20.62V17.9701H19.2972V15.3157Z" fill="currentColor" />
        <path d="M19.2972 6.02994H20.62V8.68428H19.2972V6.02994Z" fill="currentColor" />
        <path d="M17.9657 17.9701H19.2972V19.2929H17.9657V17.9701Z" fill="currentColor" />
        <path d="M16.6429 19.2929H17.9657V20.6244H16.6429V19.2929Z" fill="currentColor" />
        <path d="M13.9886 20.6244H16.6429V21.9472H13.9886V20.6244Z" fill="currentColor" />
        <path d="M8.68427 0.730011H13.993V2.0528H8.68427V0.730011Z" fill="currentColor" />
        <path d="M6.02992 2.0528H8.68427V3.38435H6.02992V2.0528Z" fill="currentColor" />
        <path d="M4.70714 3.38437H6.02993V4.70716H4.70714V3.38437Z" fill="currentColor" />
        <path d="M3.38435 4.70715H4.70713V6.02994H3.38435V4.70715Z" fill="currentColor" />
        <path
            d="M2.05279 19.2929V20.6244H0.730003V21.9472H7.36148V15.3157H6.02992V16.6385H4.70713V17.9701H3.38435V19.2929H2.05279Z"
            fill="currentColor" />
        <path d="M2.05279 15.3157H3.38434V17.9701H2.05279V15.3157Z" fill="currentColor" />
        <path d="M2.05279 6.02994H3.38434V8.68428H2.05279V6.02994Z" fill="currentColor" />
        <path d="M0.730003 8.68427H2.05279V15.3157H0.730003V8.68427Z" fill="currentColor" />
        <path d="M7.35271 2.0528H10.0071V3.38435H7.35271V2.0528Z" fill="currentColor" />
        <path d="M6.02992 3.38437H7.35271V4.70716H6.02992V3.38437Z" fill="currentColor" />
        <path d="M4.70713 4.70715H6.02992V6.02994H4.70713V4.70715Z" fill="currentColor" />
        <path d="M3.37557 15.3157H4.70713V17.9701H3.37557V15.3157Z" fill="currentColor" />
        <path d="M3.37557 6.02994H4.70713V8.68428H3.37557V6.02994Z" fill="currentColor" />
        <path d="M2.05279 8.68427H3.37558V15.3157H2.05279V8.68427Z" fill="currentColor" />
    </g>
    <defs>
        <clipPath id="clip0_2439_483">
            <rect width="24" height="24" fill="white" />
        </clipPath>
    </defs>
</svg>