<svg width="121" height="78" viewBox="0 0 121 78" fill="none" xmlns="http://www.w3.org/2000/svg">
    <path
        d="M40.3191 7.02148H86.4323L102.943 23.1042L105.482 28.4985L112.717 35.7967L115.065 49.3776L94.1855 48.9334V52.995H87.0142L87.3315 63.9106L43.1681 63.5112H37.312L11.6241 65.6466L6.97021 59.4048L20.2563 50.488L22.5185 33.5313H18.7612V29.8137H11.6241V25.909L10.2822 23.1042L13.2861 18.4748L40.3191 7.02148Z"
        fill="#B5B5B5" />
    <path
        d="M41.4024 1.63707L41.3232 3.30056L37.6266 3.37978L33.9299 3.45899V5.2281V6.99721L28.3321 7.07642L22.7344 7.12923L22.6551 9.05676L22.5759 10.9579L20.6748 11.0371L18.7737 11.1163L18.6945 12.859L18.6152 14.5753L15.1298 14.5489L11.618 14.4961V16.6349V18.7473H7.78936H3.96069V20.4636V22.1799H1.98035H0V24.0282V25.8765H1.98035H3.96069V27.8568V29.8372H7.78936H11.618V31.6855V33.5338H13.4663H15.3147L15.2619 42.8282L15.1826 52.1491L13.4135 52.2283L11.618 52.3075V54.2614V56.2418H7.78936H3.96069V57.9581V59.6744H1.98035H0V61.5227V63.371H1.98035H3.96069V65.3514V67.3317H7.78936H11.618V69.18V71.002L24.4771 70.9491L37.3625 70.8963L37.4417 69.1008L37.5209 67.3317H24.5563H11.618V65.3514V63.371H7.78936H3.96069V61.5227V59.6744H7.78936H11.618V57.9581V56.2418H15.1826H18.7473V43.0395V29.8372H15.1826H11.618V27.8568V25.8765H7.78936H3.96069V24.0282V22.1799H7.78936H11.618V20.4636V18.7473H15.1826H18.7473V16.7669V14.813L20.6748 14.7338L22.5759 14.6545L22.6551 12.8854L22.7344 11.0899L28.3321 11.0371L33.9299 10.9579L34.0091 9.03036L34.0883 7.12923H37.7586H41.4552V5.28091V3.43258H62.0772H82.6728L82.62 5.20169L82.5408 6.99721L86.2902 7.07642L90.0133 7.15563L90.0925 9.05676L90.1717 10.9579L91.8088 11.0371L93.4459 11.1163L93.5251 12.8854L93.6043 14.6545L95.7959 14.7338L97.9611 14.813V16.7669V18.7473H99.5454H101.103L101.182 20.3843L101.262 22.0478L103.321 22.127L105.354 22.2063V20.4636V18.7473H103.374H101.42L101.341 16.6877L101.262 14.6545L99.6246 14.5753L97.9611 14.4961V12.8062V11.0899H95.8487H93.7363V9.10957V7.12923H92.02H90.3037V5.28091V3.43258H86.4751H82.6464V1.71629V-1.28541e-05H62.0508H41.4816L41.4024 1.63707Z"
        fill="black" />
    <path
        d="M56.2417 22.3119V25.8765H58.09H59.9119L60.0025 29.5657L60.0625 33.6748H61.8109L63.5558 33.5603L63.8566 37.2305V40.9271H65.9058H67.8597V44.7558V48.5845H69.708H71.5564V50.4328V52.2811H75.253H78.9497V50.4328V48.5845H80.798H82.6463V43.0395V37.4946H80.798H78.9761L78.8968 33.5867V29.6959L74.9626 29.626C75.0846 29.626 74.0384 29.5732 74.9626 29.626C74.9626 27.6192 74.8305 29.758 74.9626 29.626V37.4417L76.9693 37.521L78.9761 37.6002L78.8968 42.9867L78.8176 48.4525L75.2002 48.5317L71.5564 48.6109V44.7558V40.9271H69.708H67.8597V37.2305V33.5339H65.8794H63.899V29.7052V25.8765H62.0507H60.2024V22.3119V18.7473H58.222H56.2417V22.3119Z"
        fill="black" />
    <path
        d="M37.2304 24.0283V25.8766H39.3428H41.4816L41.4024 27.7777L41.3232 29.7053H39.3428H37.3625L37.3361 27.8569L37.2833 26.0086L35.5406 25.9294L33.7979 25.8502L33.8507 31.6064L33.9299 37.3626L35.6462 37.4946L37.3625 37.6266V39.2109V40.7952L39.422 40.8744L41.4552 40.9536V37.2306V33.5339H43.3035H45.1518V29.7053V25.8766H43.3035H41.4552V24.0283V22.1799H39.3428H37.2304V24.0283Z"
        fill="black" />
    <path d="M71.5566 25.8765V29.5731H73.2729H74.9892V25.8765V22.1798H73.2729H71.5566V25.8765Z" fill="black" />
    <path
        d="M105.1 22.1799C105.021 22.3647 105.09 23.5529 105.143 24.3187L105.222 25.7445L107.018 25.8237L108.787 25.9029V27.7248V29.5732L110.371 29.5996C111.243 29.626 112.114 29.6524 112.299 29.6788C112.51 29.7052 112.616 30.2861 112.642 31.5535L112.669 33.4018L114.57 33.481L116.444 33.5603V35.5142V37.4945L108.893 37.5474L101.315 37.6266V39.2108V40.7951L108.893 40.8743L116.444 40.9271V46.5513V52.1491H105.038H93.6045V54.1294L93.5781 56.1098L80.719 56.189L67.86 56.2418V57.9581V59.6744H77.1808H86.4752L86.396 63.5031L86.3168 67.3317H67.5695H48.8223L48.9015 69.1008L48.9807 70.8964H67.728H86.4752L86.5544 69.1273L86.6337 67.3581L88.4028 67.2789L90.1719 67.1997L90.2511 63.4239L90.3303 59.6744H92.0202H93.7365V57.9581V56.2418L105.17 56.189L116.576 56.1098L116.656 54.2087L116.735 52.3075L118.372 52.2283L120.009 52.1491L120.088 42.8283L120.141 33.5339H118.451H116.735L116.656 31.6063L116.576 29.7052L114.675 29.626L112.748 29.5468V27.7248V25.8765H110.899H109.051V24.0282V22.1799H107.203C105.856 22.1799 105.23 22.1799 105.1 22.1799Z"
        fill="black" />
    <path d="M48.9014 33.5603H52.8093V31.6856V29.5989H48.9014V33.5603Z" fill="black" />
    <path d="M97.9609 33.6658V37.4945H99.6772H101.394V33.6658V29.8372H99.6772H97.9609V33.6658Z" fill="black" />
    <path
        d="M52.8333 33.4532C52.7541 33.6381 52.783 35.4614 52.7566 37.3625L52.6773 40.7951L50.7498 40.8743L48.8223 40.9535L48.9015 42.7226L48.9807 44.4917L50.9082 44.5709L52.8358 44.6502L52.7566 48.3996L52.6773 52.1491L50.7498 52.2283L48.8223 52.3075L48.9015 54.2086L48.9807 56.1098L50.9082 56.189L52.8094 56.2682V54.2614V52.2811H54.5257H56.242V48.4524V44.6238H58.2223H60.2026V42.7754V40.9271H58.2223H56.2684L56.1891 37.1513L56.253 33.3226H54.5785C53.5223 33.2698 52.9125 33.2156 52.8333 33.4532ZM56.0307 42.6698C56.0571 43.6204 56.0571 44.4653 56.0043 44.5181C55.9515 44.5709 55.1858 44.6238 54.3408 44.6238H52.8094V42.7754V40.9271H54.3672H55.9251L56.0307 42.6698Z"
        fill="black" />
    <path
        d="M37.2304 50.4327V52.2811H35.5142H33.7979L33.8507 57.7468L33.9299 63.5242L35.7254 63.6034L37.3846 63.5242L37.4945 61.5227V59.6744H39.5012H41.508L41.4288 61.4435L41.3232 63.239L43.2507 63.3182L45.1518 63.3974V57.826V52.2811H43.3035H41.4552V50.4327V48.5844H39.3428H37.2304V50.4327ZM41.4024 54.1822L41.3232 56.1097H39.3428H37.3625L37.2833 54.8159C37.1248 52.3867 37.204 52.2811 39.5012 52.2811H41.4816L41.4024 54.1822Z"
        fill="black" />
    <rect x="41.3252" y="3.32825" width="41.3254" height="3.69329" fill="#7E7E7E" />
    <rect x="33.9336" y="7.02148" width="7.49336" height="3.9917" fill="#7E7E7E" />
    <rect x="22.543" y="10.947" width="11.3904" height="3.70575" fill="#7E7E7E" />
    <rect x="18.7051" y="14.6527" width="3.83837" height="4.09005" fill="#7E7E7E" />
    <rect x="11.5908" y="18.7428" width="7.11417" height="3.41062" fill="#7E7E7E" />
    <rect x="3.9668" y="22.1534" width="7.62364" height="3.72874" fill="#7E7E7E" />
    <rect x="18.7051" y="33.5603" width="3.83837" height="18.7208" fill="#7E7E7E" />
    <rect x="3.9751" y="59.6598" width="7.6877" height="3.85495" fill="#7E7E7E" />
    <rect x="48.8335" y="63.5112" width="37.627" height="3.85495" fill="#7E7E7E" />
    <rect x="11.5659" y="63.5146" width="25.7908" height="3.85143" fill="#7E7E7E" />
    <rect x="52.8667" y="52.2811" width="3.37494" height="3.98713" fill="#7E7E7E" />
    <rect x="56.2417" y="44.5973" width="3.96065" height="3.73659" fill="#7E7E7E" />
    <rect x="56.2417" y="37.2169" width="3.96065" height="3.73659" fill="#7E7E7E" />
    <rect x="52.8091" y="29.5731" width="3.45579" height="3.9871" fill="#7E7E7E" />
    <rect x="60.0557" y="33.5603" width="3.80965" height="3.65673" fill="#7E7E7E" />
    <rect x="63.8652" y="40.9407" width="4.01022" height="3.65673" fill="#7E7E7E" />
    <rect x="67.8755" y="48.6244" width="3.74316" height="3.65673" fill="#7E7E7E" />
    <rect x="78.9512" y="48.6244" width="3.74316" height="3.65673" fill="#7E7E7E" />
    <rect x="82.7173" y="37.4945" width="3.74316" height="11.1298" fill="#7E7E7E" />
    <rect x="78.9033" y="29.7034" width="3.81399" height="7.92151" fill="#7E7E7E" />
    <rect x="74.9893" y="22.1799" width="3.9142" height="7.52353" fill="#7E7E7E" />
    <rect x="97.9609" y="18.7472" width="3.32524" height="3.43263" fill="#7E7E7E" />
    <rect x="93.6655" y="14.652" width="4.29556" height="4.0953" fill="#7E7E7E" />
    <rect x="90.0928" y="10.9197" width="3.57266" height="3.73229" fill="#7E7E7E" />
    <rect x="82.6509" y="7.02148" width="7.56257" height="3.89812" fill="#7E7E7E" />
    <rect x="71.6187" y="52.2811" width="7.33234" height="3.92314" fill="#7E7E7E" />
    <rect x="82.6943" y="52.2811" width="11.0985" height="3.92314" fill="#7E7E7E" />
    <rect x="112.481" y="40.9153" width="3.93939" height="7.44272" fill="#7E7E7E" />
    <path
        d="M101.286 22.0537L105.274 22.1771V25.7062L108.926 25.8339L108.842 29.5495H112.77L112.862 33.1782L116.44 33.2819V37.4945H112.77H101.415L101.286 22.0537Z"
        fill="#7E7E7E" />
    <rect x="93.793" y="48.3579" width="22.6281" height="3.92314" fill="#7E7E7E" />
    <rect x="56.2651" y="25.8501" width="3.76226" height="3.72305" fill="#7E7E7E" />
    <rect x="37.1499" y="25.8501" width="4.32901" height="3.897" fill="#3B3B3C" />
    <rect x="37.1499" y="25.8501" width="4.32901" height="3.897" fill="white" />
    <rect x="52.8667" y="40.9536" width="3.15392" height="3.64376" fill="#E8A794" />
    <rect x="37.1616" y="52.2593" width="4.337" height="3.87385" fill="#E8A794" />
    <rect x="37.1616" y="52.2593" width="4.337" height="3.87385" fill="white" />
    <path
        d="M45.1527 29.5731H48.9023V70.8963H58.5819V77.4921H48.9023H37.1694H30.0304H22.4672L22.4673 74.1942H30.0304V70.8963H37.1694L37.36 63.4358V59.6182H41.4565V63.3015H45.1527V48.6191H41.4566V40.9741V33.523H45.1527V29.5731Z"
        fill="#8CCED8" />
</svg>